<?xml version="1.0" standalone="no"?>
<!DOCTYPE svg PUBLIC "-//W3C//DTD SVG 20010904//EN"
 "http://www.w3.org/TR/2001/REC-SVG-20010904/DTD/svg10.dtd">
<svg version="1.0" xmlns="http://www.w3.org/2000/svg"
 width="512.000000pt" height="512.000000pt" viewBox="0 0 512.000000 512.000000"
 preserveAspectRatio="xMidYMid meet">

<g transform="translate(0.000000,512.000000) scale(0.100000,-0.100000)"
fill="#000000" stroke="none">
<path d="M121 3318 c-39 -123 -77 -296 -97 -443 -21 -159 -21 -478 1 -640 115
-862 643 -1596 1420 -1975 88 -43 205 -95 259 -115 100 -37 390 -115 426 -115
20 0 20 11 20 905 l0 905 -320 0 -320 0 0 360 0 360 319 0 320 0 4 393 c3 215
8 407 12 425 l7 32 -1010 0 -1011 0 -30 -92z"/>
<path d="M3230 3396 c-107 -30 -173 -86 -207 -175 -14 -39 -18 -92 -21 -353
l-3 -308 341 0 340 0 -5 -22 c-3 -13 -28 -165 -55 -338 -28 -173 -53 -325 -55
-337 l-5 -23 -280 0 -280 0 -2 -905 c-2 -498 0 -905 4 -905 4 0 76 18 161 39
199 51 316 94 512 190 778 381 1306 1116 1420 1976 22 162 22 482 0 640 -19
147 -57 319 -96 443 l-30 92 -847 -1 c-645 -1 -858 -4 -892 -13z"/>
</g>
</svg>
